<?xml version="1.0" encoding="utf-8"?>
<!-- Generator: Adobe Illustrator 19.2.1, SVG Export Plug-In . SVG Version: 6.00 Build 0)  -->
<svg version="1.1" id="Layer_1" xmlns="http://www.w3.org/2000/svg" xmlns:xlink="http://www.w3.org/1999/xlink" x="0px" y="0px"
	 viewBox="0 0 309.1 72.8" style="enable-background:new 0 0 309.1 72.8;" xml:space="preserve">
<style type="text/css">
	.st0{fill:#231F20;}
	.st1{fill:#943651;}
</style>
<title>Formal_Marshall_CardOnWhite</title>
<path class="st0" d="M141.3,33.2c0.8-0.9,6.7-14.9,7.2-15.7c0.5-0.8,6.8-14.6,7-15.8c0.2-0.6,0.8-0.9,1.4-0.7
	c7.8,0,9.8-0.2,10.5-0.2c0.2,0,0.3,0.1,0.4,0.3c0,0,0,0.1,0,0.1v1.4c0,0.4-0.1,0.5-0.5,0.5h-2.6c-1.8,0-1.9,1.1-1.9,2.4
	c0,1.7-0.2,10.1-0.2,14v4.1c0,2.9,0.2,12.5,0.2,13.6c0,2.2,0.5,3.2,2,3.2h3.5c0.2,0,0.4,0.1,0.4,0.3c0,0,0,0.1,0,0.1v1.3
	c0,0.3-0.1,0.5-0.5,0.5c-0.7,0-1.8-0.2-8.2-0.2c-5.4,0-7.7,0.2-8.5,0.2c-0.4,0-0.5-0.2-0.5-0.5v-1.3c0-0.3,0.1-0.4,0.5-0.4h4
	c1,0,1.5-0.3,1.6-2.1c0.1-0.7,0.1-10.9,0.1-15.3v-3.8c0-3.9,0-14.3-0.2-14.9h-0.1c-0.6,0.8-8.9,19.3-9.2,19.9
	c-0.3,0.6-6.9,15.7-7.1,16.2s-0.7,1.4-1.2,1.4c-0.5-0.2-0.8-0.6-0.9-1.1c-0.2-0.4-7.7-19-8-19.7c-1.1-2.7-6.5-15.9-7.3-16.6
	c-0.2,0.8-0.4,15.7-0.4,16.4s-0.1,13.1,0.1,15.1c0.3,3.3,0.8,4.3,2.7,4.3h2.9c0.2,0,0.4,0.1,0.4,0.3c0,0,0,0.1,0,0.1v1.5
	c0,0.2-0.1,0.4-0.5,0.4c-0.6,0-2.2-0.2-7.1-0.2s-7,0.2-7.6,0.2s-0.5-0.1-0.5-0.5v-1.4c0-0.2,0.1-0.3,0.3-0.4c0,0,0.1,0,0.1,0h3.1
	c2.2,0,2.8-1.5,3.1-3.5c0.7-4.2,0.9-19.2,0.9-20.3c0-0.8,0-9.7-0.1-11.4c-0.1-1.4,0-2.2-2.4-2.2h-3.6c-0.2,0-0.4-0.1-0.4-0.3
	c0,0,0-0.1,0-0.1V1.2c0-0.2,0.1-0.3,0.3-0.4c0,0,0.1,0,0.1,0c0.6,0,2.2,0.2,7.2,0.2c2.8,0,4.3-0.2,5-0.2c0.7-0.1,1.4,0.3,1.5,1
	L141.3,33.2z"/>
<path class="st0" d="M182.4,29.7c-2.1,1.6-7.9,2.8-7.9,7.6c-0.2,1.6,0.9,3,2.5,3.2c0.2,0,0.4,0,0.5,0c1.7,0,4.8-2.1,4.8-3.6V29.7
	L182.4,29.7z M186.7,35.7c0,3.4,0.7,4.4,1.8,4.4c0.8,0,1.5-0.3,2-0.9c0.2-0.3,0.4-0.4,0.6-0.2l0.6,0.5c0.3,0.3,0.2,0.8-0.1,1.1
	c-0.8,1.8-2.6,2.9-4.6,2.9c-2.1,0-3.6-1.5-4.2-3.9h-0.1c-1.6,1.7-3.6,2.9-5.8,3.6c-1.1,0.3-2.3,0.4-3.5,0.4c-1.4,0-3.5-1.2-3.5-4.9
	c0-2.7,1.2-5,5.9-7.1c2.6-1.2,5.7-2.6,6.6-3.4v-3.7c-0.1-1-0.2-2.5-0.8-3.3c-0.9-0.9-2.2-1.4-3.5-1.3c-1.4,0-2.7,0.4-3.8,1.2
	c-0.8,0.8-0.3,1.7-0.3,2.7c0,2.1-0.7,3.3-3.1,3.3c-0.9,0-1.4-0.5-1.4-1.9c0-1.9,1.6-4.1,4-5.5c2.1-1.4,4.6-2.1,7.1-2.1
	c2.8,0,3.9,0.8,4.7,1.6c1.3,1.2,1.3,2.6,1.3,4.2V35.7z"/>
<path class="st0" d="M196.7,27c0-3-0.5-3.6-2.1-4.5l-1.1-0.6c-0.4-0.1-0.5-0.2-0.5-0.4v-0.4c0-0.3,0.2-0.5,0.5-0.5l5.8-3
	c0.2-0.1,0.5-0.2,0.8-0.2c0.4,0,0.4,0.3,0.4,0.7l0.3,4.1h0.2c1.8-2.7,4.5-5.1,7-5.1c2,0,3,1.2,3,2.6c0,1.4-1,2.7-2.4,2.9
	c-0.6,0-1.2-0.2-1.7-0.5c-0.6-0.3-1.3-0.5-1.9-0.5c-1.5,0.1-2.9,1.1-3.5,2.5c-0.3,0.6-0.5,1.2-0.6,1.9v12.3c0,1.8,0.4,2.4,1.6,2.4
	h2.8c0.4,0,0.4,0.2,0.4,0.5v1.1c0,0.3-0.1,0.5-0.3,0.5c-0.2,0-3.1-0.2-6.2-0.2c-3.6,0-6.1,0.2-6.5,0.2s-0.4-0.1-0.4-0.6v-1
	c0-0.4,0.1-0.5,0.6-0.5h2.3c0.6,0.1,1.1-0.2,1.2-0.8c0-0.1,0-0.2,0-0.3c0.1-1.9,0.1-4,0.1-7L196.7,27L196.7,27z"/>
<path class="st0" d="M212.9,41.6c-0.2-0.2-0.4-0.5-0.4-0.8l-1-5.6c0-0.2,0.1-0.4,0.3-0.5c0,0,0,0,0.1,0l0.8-0.2
	c0.2-0.1,0.5,0.1,0.5,0.3c0,0,0,0,0,0l1.5,2.9c1.2,2.2,2,3.6,5.1,3.6c2,0,4.6-1.2,4.6-4s-1.3-4.2-5.7-5.4c-3.5-1-6.9-2.8-6.9-7.5
	c0-4,3.8-7.2,8.2-7.2c1.9-0.1,3.7,0.4,5.4,1.2c0.5,0.1,0.9,0.5,1.1,1.1l0.9,4.1c0,0.2-0.2,0.5-0.4,0.5l-0.7,0.2
	c-0.2,0.1-0.5-0.1-0.5-0.3c0,0,0,0,0,0l-2-2.7c-0.8-1.5-2.4-2.4-4.1-2.3c-2.2,0-4.5,1.3-4.5,3.9c0,3.4,2.8,4,5.6,4.9
	c4.3,1.2,7,3,7,7.5c-0.1,4.8-3.9,7.8-8.9,7.8C216.7,43.4,214.7,42.8,212.9,41.6"/>
<path class="st0" d="M231.7,10.6c0-3.6-0.7-4.2-2.8-4.9l-1-0.4c-0.4-0.1-0.4-0.2-0.4-0.4V4.5c0-0.2,0.2-0.3,0.7-0.6l6.1-3.2
	c0.4-0.3,0.9-0.4,1.4-0.5c0.4,0,0.6,0.5,0.5,1.5S236,14.6,236,17.5v3.8h0.3c2-2.3,4.9-3.7,8-3.8c2.2-0.1,4.3,0.8,5.8,2.3
	c2.6,2.5,2.5,5.5,2.5,8.6v3.3c0,3.3,0.1,6.9,0.1,8c0,0.7,0.9,0.9,2.2,0.9h1c0.5,0,0.6,0.1,0.6,0.5v0.9c0,0.5-0.1,0.7-0.5,0.7
	s-2.3-0.2-5.6-0.2c-2.9,0-5,0.2-5.5,0.2s-0.5-0.2-0.5-0.6v-1c0-0.3,0.1-0.5,0.4-0.5h1.4c1,0,2.2-0.1,2.2-1.1c0.1-0.8,0-3.9,0-5.8V29
	c0-3.3-0.2-5.6-1.9-7.2c-1-1-2.4-1.6-3.9-1.6c-2.1,0-4.1,0.9-5.5,2.5c-0.7,0.8-1.1,1.8-1.2,2.9v12.8c0,1.9,0.2,2.4,1.3,2.4h1.8
	c0.4,0,0.6,0.1,0.6,0.5v1c0,0.4-0.1,0.6-0.5,0.6s-2.9-0.2-5.6-0.2c-2.9,0-5.2,0.2-5.7,0.2c-0.2,0-0.4-0.2-0.4-0.6v-1
	c0-0.4,0.2-0.5,0.9-0.5h1.2c0.9,0,1.8-0.2,1.9-0.9c0.1-1.1,0.1-7.6,0.1-11.4V10.6z"/>
<path class="st0" d="M270,29.7c-2.1,1.6-7.9,2.8-7.9,7.6c-0.2,1.6,0.9,3,2.5,3.2c0.2,0,0.4,0,0.5,0c1.7,0,4.8-2.1,4.8-3.6V29.7z
	 M274.3,35.7c0,3.4,0.7,4.4,1.8,4.4c0.8,0,1.5-0.3,2-0.9c0.2-0.3,0.4-0.4,0.6-0.2l0.6,0.5c0.3,0.3,0.2,0.8-0.1,1.1
	c-0.8,1.8-2.6,2.9-4.6,2.9c-2.1,0-3.6-1.5-4.2-3.9h-0.1c-1.6,1.7-3.6,2.9-5.8,3.6c-1.1,0.3-2.3,0.4-3.5,0.3c-1.4,0-3.5-1.2-3.5-4.9
	c0-2.7,1.2-5,5.9-7.1c2.6-1.2,5.7-2.6,6.6-3.4v-3.7c-0.1-1-0.2-2.5-0.8-3.3c-0.9-0.9-2.2-1.4-3.5-1.3c-1.4,0-2.7,0.4-3.8,1.2
	c-0.8,0.8-0.3,1.6-0.3,2.7c0,2-0.7,3.3-3.1,3.3c-0.9,0-1.4-0.5-1.4-1.9c0-1.9,1.6-4.1,4-5.5c2.1-1.4,4.6-2.1,7.2-2.1
	c2.8,0,3.9,0.8,4.7,1.6c1.2,1.2,1.3,2.6,1.3,4.2L274.3,35.7L274.3,35.7z"/>
<path class="st0" d="M288.9,25.1c0,3,0,11.9,0.1,13.7c0.1,1,0.3,1.8,1.5,1.8h2.6c0.5,0,0.6,0.2,0.6,0.5v1c0,0.3-0.1,0.6-0.4,0.6
	c-0.4,0-3-0.2-6.6-0.2s-6.1,0.2-6.6,0.2c-0.3,0-0.4-0.2-0.4-0.6v-1c0-0.4,0.1-0.5,0.8-0.5h2.8c0.7,0,1.3-0.6,1.3-1.3
	c0,0,0-0.1,0-0.1c0.1-1.8,0.1-11.9,0.1-15.3v-3.7c0-4.2-0.1-9.5-0.2-11c-0.1-2-1.1-2.9-2.9-3.5l-1.2-0.5C280.1,5.1,280,5,280,4.9
	V4.5c0.1-0.2,0.3-0.4,0.5-0.4c2.4-1,4.7-2.1,6.9-3.4c0.4-0.3,0.8-0.4,1.3-0.4c0.4,0,0.5,0.3,0.5,1.1c-0.1,3.2-0.2,15.4-0.2,18.7
	L288.9,25.1L288.9,25.1z"/>
<path class="st0" d="M304.2,25.1c0,3,0,11.9,0.1,13.7c0.1,1,0.3,1.8,1.5,1.8h2.6c0.5,0,0.6,0.2,0.6,0.5v1c0,0.3-0.1,0.6-0.4,0.6
	c-0.4,0-3-0.2-6.6-0.2s-6.1,0.2-6.6,0.2c-0.3,0-0.4-0.2-0.4-0.6v-1c0-0.4,0.1-0.5,0.8-0.5h2.8c0.7,0,1.3-0.6,1.3-1.3
	c0,0,0-0.1,0-0.1c0.1-1.8,0.1-11.9,0.1-15.3v-3.7c0-4.2-0.1-9.5-0.2-11c-0.1-2-1.1-2.9-2.9-3.5l-1.2-0.5c-0.3-0.1-0.4-0.2-0.4-0.3
	V4.5c0.1-0.2,0.3-0.4,0.5-0.4c2.4-1,4.7-2.1,6.9-3.4c0.4-0.3,0.8-0.4,1.2-0.5c0.4,0,0.5,0.3,0.5,1.1c-0.1,3.2-0.2,15.4-0.2,18.7
	L304.2,25.1L304.2,25.1z"/>
<path class="st1" d="M5.2,6.1c0-2-0.5-3-2-3H0.5C0.1,3.1,0,3,0,2.5V1.2c0-0.4,0.1-0.5,0.6-0.5S4,0.9,9.8,0.9c5,0,7.8-0.2,8.6-0.2
	c0.4,0,0.5,0.1,0.5,0.4v1.5c0.1,0.2-0.1,0.4-0.3,0.5c-0.1,0-0.1,0-0.2,0h-2.5c-1.8,0-2.8,1.1-2.9,2.3c-0.1,0.7-0.2,4.3-0.2,7.7v7.4
	c0,3,0.1,7.2,0.2,9.1c0.2,2.7,0.7,5.5,2.1,7.4c2,2.4,5,3.8,8.1,3.7c2.9,0,5.7-1,8-2.8c2.3-2.3,3.5-5.7,3.5-10V17.1
	c0-3.8-0.2-7.6-0.7-11.4c-0.2-1.5-1.2-2.6-2.5-2.6h-2.1c-0.2,0-0.4-0.1-0.5-0.3c0,0,0-0.1,0-0.1V1.2c-0.1-0.2,0.1-0.4,0.3-0.5
	c0.1,0,0.1,0,0.2,0c0.6,0,3.3,0.2,7.2,0.2c3.7,0,5.6-0.2,6.1-0.2s0.6,0.2,0.6,0.5v1.4c0,0.4-0.1,0.5-0.4,0.5h-2.1
	C39.4,3,38.3,4,38.2,5.3c0,0,0,0.1,0,0.1c-0.1,0.7-0.1,9-0.1,9.8c0,0.8-0.1,11.2-0.4,13.5c-0.4,4.9-1.8,8.6-5,11.4
	c-3,2.5-6.9,3.8-10.8,3.7c-2.9,0-5.8-0.4-8.6-1.4c-3.4-1.4-6-4.4-7-8c-0.8-2.6-1.1-6.5-1.1-14.3L5.2,6.1L5.2,6.1z"/>
<path class="st1" d="M44.8,29.7c0.2,0,0.3,0.1,0.3,0.5c0.1,2.4,0.9,4.8,2.3,6.8c1.7,2.7,4.7,4.3,7.8,4.3c3.2,0,7.7-2,7.7-7
	c0-5.5-2.5-7.3-8.8-9.6c-3.2-1.1-6.1-2.8-8.7-5c-2-1.9-3-4.9-3-8.5c0-3.3,1.5-6.4,4.2-8.3c2.4-2,5.4-3,8.4-2.9
	c2.6-0.1,5.2,0.4,7.6,1.4c0.4,0.2,0.9,0.2,1.2-0.2l0.8-0.8c0.2-0.2,0.5-0.4,0.8-0.4c0.4,0,0.5,0.4,0.5,1c0,1,0.9,9.3,0.9,9.9
	c0,0.2-0.1,0.4-0.4,0.4c0,0,0,0,0,0l-1,0.3c-0.2,0.1-0.5-0.1-0.6-0.3c0,0,0,0,0-0.1c-0.8-2.3-2-4.5-3.7-6.3
	c-1.6-1.7-3.8-2.6-6.2-2.5c-3.5-0.2-6.5,2.5-6.7,6c0,2,0.2,3.8,1.7,5.3s4.9,3,7.2,3.7c3.5,1,6.3,2.2,8.6,4.6c1.9,2,3,4.5,3,8.5
	c0,7.3-4.8,13.2-12.6,13.2c-4.9,0-7.7-1.1-10.1-2.8c-0.4-0.4-0.9-0.6-1.4-0.7c-0.5,0.2-0.8,0.6-1,1.1c-0.2,0.4-0.6,0.7-1.1,0.7
	c-0.4,0-0.8-0.4-0.7-0.8c0-0.1,0-0.1,0-0.2c0.1-0.7,1-10.3,1.1-11.1c0.1-0.4,0.1-0.5,0.3-0.5L44.8,29.7z"/>
<path class="st1" d="M109.6,33.3c0.2,0.1,0.2,0.4,0.1,0.6c-3.6,5.1-9.3,10-17.7,10c-7.6,0-11.9-2.3-15.6-5.6
	C72,34.4,70,27.5,70,22.2c-0.1-5.9,2.1-11.6,6.1-15.9C79.3,2.9,84.4,0,91.6,0c4.2,0,8.3,1,12,2.9c0.8,0.5,1.1,0.5,1.2,0l0.5-1.5
	c0.1-0.4,0.2-0.4,1-0.4s0.8,0.1,0.8,1c0,1.1,1.2,10.6,1.4,12.4c0.1,0.4,0,0.5-0.2,0.6l-1.1,0.4c-0.3,0.1-0.5-0.1-0.7-0.6
	c-1-2.9-2.6-5.5-4.6-7.7c-2.7-2.8-6.4-4.4-10.3-4.4C82,2.6,78,11.1,78,19.7c0,3.7,1.1,10.7,5.5,15.5c3.9,4.2,7.4,4.6,10.2,4.6
	c5.6,0.1,10.9-2.4,14.2-6.9c0.3-0.4,0.5-0.6,0.7-0.4L109.6,33.3z"/>
<path class="st0" d="M120,71.7c-0.1-0.1-0.3-0.2-0.4-0.2c-0.1,0.1-0.3,0.2-0.3,0.3c0,0.1-0.2,0.2-0.3,0.2c-0.1,0-0.2-0.1-0.2-0.3
	c0.1-0.5,0.3-2.9,0.3-3.4c0-0.1,0.1-0.1,0.1-0.1h0.3c0.1,0,0.1,0,0.1,0.2c0,0.8,0.2,1.6,0.7,2.2c0.6,0.9,1.6,1.4,2.7,1.4
	c1.3,0.1,2.5-0.9,2.6-2.3c0,0,0-0.1,0-0.1c0-2-1.4-2.7-2.9-3.2c-1-0.3-2-0.8-2.8-1.5c-0.7-0.8-1-1.8-0.9-2.8
	c0.1-0.9,0.5-1.8,1.2-2.4c0.7-0.6,1.7-1,2.7-0.9c0.8,0,1.5,0.2,2.2,0.5c0.1,0.1,0.3,0.1,0.4,0l0.2-0.2c0.1-0.1,0.2-0.1,0.2-0.1
	c0.1,0.1,0.2,0.2,0.1,0.3c0,0.7,0.2,2.6,0.3,3c0,0.1,0,0.1-0.1,0.1c0,0,0,0,0,0l-0.2,0.1c0,0-0.1,0-0.1,0c0,0,0,0,0,0
	c-0.2-0.8-0.6-1.5-1.2-2c-0.5-0.6-1.3-0.9-2.1-0.8c-1.2-0.1-2.2,0.8-2.3,2c0,0.1,0,0.2,0,0.2c0,0.6,0.2,1.2,0.6,1.7
	c0.6,0.5,1.4,0.9,2.2,1.1c1.2,0.2,2.2,0.8,3.1,1.6c0.6,0.7,0.9,1.6,0.8,2.6c0,2.2-1.4,4.2-3.9,4.2C121.9,72.7,120.9,72.4,120,71.7z"
	/>
<path class="st0" d="M129.8,67.8c0,1,0.4,2,1,2.9c0.5,0.7,1.3,1,2.1,1c0.8,0.1,1.6-0.2,2.1-0.8c0,0,0.1,0,0.1,0c0,0,0,0,0,0l0.2,0.2
	c0.1,0,0.1,0.1,0,0.2c0,0,0,0,0,0c-0.8,0.8-1.9,1.3-3.1,1.3c-1.1,0.1-2.2-0.4-2.9-1.3c-0.6-0.7-0.9-1.6-0.9-2.6
	c-0.1-2.3,1.7-4.3,4-4.5c0,0,0,0,0,0c2,0,2.6,1.1,2.6,1.5c0,0.4-0.3,0.7-0.6,0.7c0,0,0,0-0.1,0c-0.5,0-0.8-0.3-1-0.8
	c-0.2-0.5-0.7-0.9-1.3-0.8C130.9,64.9,129.8,65.9,129.8,67.8z"/>
<path class="st0" d="M137.5,62.1c0-1.2-0.2-1.4-0.9-1.6l-0.3-0.1c-0.1,0-0.1-0.1-0.1-0.1v-0.2c0-0.1,0.1-0.1,0.2-0.2l2-1
	c0.1-0.1,0.3-0.1,0.4-0.2c0.1,0,0.2,0.2,0.1,0.5s-0.1,4.2-0.1,5.1v1.2h0.1c0.7-0.8,1.6-1.2,2.6-1.2c0.7,0,1.4,0.3,1.9,0.8
	c0.7,0.8,1,1.8,0.8,2.8v1.1c0,1.1,0,2.2,0,2.6s0.3,0.3,0.7,0.3h0.3c0.1,0,0.2,0,0.2,0.2v0.2c0,0.2,0,0.2-0.1,0.2s-0.7-0.1-1.8-0.1
	c-0.9,0-1.6,0.1-1.8,0.1c-0.2,0-0.2-0.1-0.2-0.2v-0.3c0-0.1,0-0.2,0.1-0.2h0.4c0.3,0,0.7,0,0.7-0.4c0-0.4,0-1.3,0-1.9V68
	c0.1-0.8-0.1-1.7-0.6-2.3c-0.3-0.3-0.8-0.5-1.2-0.5c-0.7,0-1.3,0.3-1.8,0.8c-0.2,0.3-0.4,0.6-0.4,0.9V71c0,0.6,0.1,0.8,0.4,0.8h0.6
	c0.1,0,0.2,0,0.2,0.2v0.3c0,0.1,0,0.2-0.1,0.2s-0.9-0.1-1.8-0.1c-0.9,0-1.7,0.1-1.8,0.1c-0.2,0-0.1-0.1-0.1-0.2v-0.3
	c0-0.1,0.1-0.2,0.3-0.2h0.4c0.3,0.1,0.5-0.1,0.6-0.3c0.1-0.4,0.1-2.4,0.1-3.7L137.5,62.1L137.5,62.1z"/>
<path class="st0" d="M147.5,71.3c-1.5-1.8-1.4-4.4,0.4-6c0.1-0.1,0.1-0.1,0.2-0.2c0.7-0.6,1.6-0.9,2.6-0.9c1,0,1.9,0.4,2.7,1.1
	c0.8,0.8,1.3,1.9,1.3,3.1c-0.1,2.3-1.9,4.1-4.2,4.2C149.3,72.6,148.3,72.2,147.5,71.3z M153,68.3c0-2.1-1.5-3.4-2.5-3.4
	c-0.6,0-1.1,0.2-1.5,0.6c-0.8,0.8-1.1,1.9-1,3c-0.1,0.9,0.2,1.9,0.7,2.7c0.4,0.6,1.1,1,1.9,1C152.1,72.1,153,70.3,153,68.3z"/>
<path class="st0" d="M157,71.3c-1.5-1.8-1.4-4.4,0.4-6c0.1-0.1,0.1-0.1,0.2-0.2c0.7-0.6,1.6-0.9,2.5-0.9c1,0,1.9,0.4,2.7,1.1
	c0.8,0.8,1.3,1.9,1.3,3.1c-0.1,2.3-1.9,4.1-4.2,4.2C158.8,72.6,157.7,72.2,157,71.3z M162.5,68.3c0-2.1-1.5-3.4-2.5-3.4
	c-0.6,0-1.1,0.2-1.5,0.6c-0.8,0.8-1.1,1.9-1,3c-0.1,0.9,0.2,1.9,0.7,2.7c0.4,0.6,1.1,1,1.9,1C161.6,72.1,162.5,70.3,162.5,68.3z"/>
<path class="st0" d="M168,66.7c0,1,0,3.9,0,4.4c-0.1,0.3,0.1,0.5,0.4,0.6c0,0,0.1,0,0.1,0h0.9c0.2,0,0.2,0.1,0.2,0.2v0.3
	c0,0.1,0,0.2-0.1,0.2c-0.1,0-1-0.1-2.1-0.1s-2,0.1-2.1,0.1s-0.1-0.1-0.1-0.2V72c0-0.1,0-0.2,0.2-0.2h0.9c0.2,0,0.4-0.2,0.4-0.4
	c0,0,0,0,0,0c0-0.6,0-3.9,0-5v-1.2c0-1.3,0-3.1-0.1-3.6c0-0.6-0.4-1-1-1.1l-0.4-0.1c-0.1,0-0.1-0.1-0.1-0.1v-0.1
	c0-0.1,0.1-0.1,0.2-0.1c0.8-0.3,1.5-0.7,2.2-1.1c0.1-0.1,0.3-0.1,0.4-0.2c0.1,0,0.2,0.1,0.1,0.3c0,1-0.1,5-0.1,6L168,66.7L168,66.7z
	"/>
<path class="st0" d="M174.4,71.3c-1.5-1.8-1.4-4.4,0.4-6c0.1-0.1,0.1-0.1,0.2-0.2c0.7-0.6,1.6-0.9,2.6-0.9c1,0,1.9,0.4,2.7,1.1
	c0.8,0.8,1.3,1.9,1.3,3.1c-0.1,2.3-1.9,4.1-4.2,4.2C176.2,72.6,175.1,72.2,174.4,71.3z M179.9,68.3c0-2.1-1.5-3.4-2.5-3.4
	c-0.6,0-1.1,0.2-1.5,0.6c-0.8,0.8-1.1,1.9-1,3c-0.1,0.9,0.2,1.9,0.7,2.7c0.4,0.6,1.1,1,1.9,1C179,72.1,179.9,70.3,179.9,68.3z"/>
<path class="st0" d="M184.2,65.4h-1.3c-0.1,0-0.1,0-0.1-0.2l0.1-0.6c0-0.1,0.1-0.1,0.2-0.1h1.1v-0.4c-0.1-1.4,0.4-2.9,1.3-4
	c0.8-0.9,1.9-1.5,3.1-1.5c0.9,0,1.7,0.3,1.7,1.1c0,0.4-0.4,0.8-0.8,0.8c-0.2,0-0.4,0-0.5-0.1c-0.2-0.1-0.3-0.3-0.5-0.4
	c-0.2-0.3-0.5-0.5-0.9-0.4c-0.6,0-1.1,0.2-1.4,0.7c-0.7,0.9-0.7,2.5-0.7,3.9v0.4h2.3c0.1,0,0.1,0.1,0.1,0.1c0,0,0,0,0,0l-0.1,0.6
	c0,0.1-0.1,0.1-0.2,0.1h-2.1V67c0,2.2,0,4,0,4.2c0,0.2,0.1,0.5,0.4,0.5c0,0,0.1,0,0.1,0h1.1c0.2,0,0.2,0,0.2,0.2v0.3
	c0,0.2,0,0.2-0.1,0.2s-0.8-0.1-2.3-0.1c-1,0-2,0.1-2.2,0.1s-0.1,0-0.1-0.1v-0.4c0-0.1,0-0.1,0.2-0.1h0.9c0.4,0,0.4-0.2,0.5-0.7
	L184.2,65.4L184.2,65.4z"/>
<path class="st0" d="M195.5,64.1c0-0.7,0-3-0.1-3.4c-0.1-1.1-0.4-1.1-1.2-1.1h-0.6c-0.1,0-0.1,0-0.1-0.1V59c0-0.1,0-0.1,0.1-0.1
	c0.3,0,1.2,0.1,2.5,0.1c0.6,0,1.8-0.1,2.4-0.1c1.1-0.1,2.3,0.1,3.4,0.5c1,0.5,1.5,1.5,1.5,2.6c0,1.9-0.8,2.4-2.3,3.1h0.1
	c1.8,0.6,3.1,1.8,3.1,3.8c0,1.1-0.6,2.2-1.5,2.9c-1.1,0.6-2.4,0.8-3.6,0.7c-1.3,0-2-0.1-2.9-0.1c-1,0-2.1,0.1-2.4,0.1
	s-0.3,0-0.3-0.1v-0.5c0-0.1,0-0.1,0.2-0.1h1c0.6,0,0.7-0.2,0.8-0.8c0.1-0.4,0.1-2.9,0.1-4.5L195.5,64.1L195.5,64.1z M197.2,64.9
	c0.3,0,0.7,0,1,0c0.8,0.1,1.7-0.1,2.4-0.5c0.7-0.5,1.1-1.4,1.1-2.3c0-0.8-0.3-1.5-0.9-2c-0.8-0.5-1.7-0.7-2.6-0.7
	c-0.2,0-0.4,0-0.6,0c-0.2,0-0.3,0.2-0.3,0.3c0,0.4,0,2,0,3.6L197.2,64.9L197.2,64.9z M197.2,66.7v2.6c0,1.8,0.4,2.5,2,2.5
	c1.5,0.2,2.9-0.9,3.1-2.4c0-0.2,0-0.4,0-0.6c0.1-1.3-0.7-2.5-1.9-3c-0.8-0.3-1.7-0.4-2.6-0.3h-0.6V66.7z"/>
<path class="st0" d="M212.3,68.6c0,0.9,0,1.8,0,2.2c0.1,0.6,0.3,0.7,0.5,0.7c0.2,0,0.4,0,0.6-0.1c0.1,0,0.2,0,0.2,0.1l0.1,0.2
	c0,0.1,0,0.1-0.1,0.2c0,0,0,0,0,0l-2,0.7c-0.1,0-0.2,0.1-0.4,0.1c-0.1,0-0.1,0-0.2-0.2l-0.1-1.1l0,0c-0.6,0.8-1.6,1.3-2.6,1.3
	c-0.7,0-1.4-0.3-1.8-0.9c-0.8-1-0.7-1.6-0.7-3.7v-2.2c0-0.4-0.2-0.7-0.6-0.7c0,0-0.1,0-0.1,0c-0.3,0-0.4,0-0.4-0.1v-0.4
	c0-0.1,0-0.2,0.2-0.2h1.7c0.1,0,0.2,0,0.3,0h0.2c0.1,0,0.2,0.1,0.2,0.2c0,0,0,0,0,0c0,0.2-0.1,1.1-0.1,2.2v1.3c-0.2,1,0,2,0.4,2.8
	c0.3,0.5,0.9,0.8,1.5,0.7c0.7-0.1,1.2-0.5,1.6-1c0.1-0.1,0.2-0.3,0.2-0.5v-4.5c0-0.4-0.3-0.7-0.7-0.7c0,0-0.1,0-0.1,0
	c-0.3,0-0.4,0-0.4-0.1v-0.3c0-0.2,0-0.2,0.2-0.2h1.7c0.1,0,0.2,0,0.3,0h0.2c0.1,0,0.2,0.1,0.2,0.1c0,0,0,0,0,0
	c-0.1,0.8-0.1,1.7-0.1,2.5L212.3,68.6L212.3,68.6z"/>
<path class="st0" d="M215.3,72.1c-0.1-0.1-0.1-0.2-0.1-0.3l-0.3-1.8c0-0.1,0-0.1,0.1-0.1c0,0,0,0,0,0l0.2-0.1c0.1,0,0.2,0,0.2,0.1
	c0,0,0,0,0,0l0.5,0.9c0.2,0.7,0.9,1.2,1.6,1.2c0.8,0.1,1.4-0.5,1.5-1.3c0,0,0,0,0,0c0-0.8-0.4-1.3-1.8-1.8c-1.1-0.3-2.2-0.9-2.2-2.4
	c0.1-1.4,1.3-2.4,2.7-2.3c0.6,0,1.2,0.1,1.8,0.4c0.2,0,0.3,0.2,0.3,0.3l0.3,1.3c0,0.1-0.1,0.2-0.1,0.2l-0.2,0.1
	c-0.1,0-0.1,0-0.2-0.1l-0.6-0.9c-0.3-0.5-0.8-0.8-1.3-0.7c-0.7-0.1-1.4,0.5-1.5,1.2c0,0,0,0,0,0c0,1.1,0.9,1.3,1.8,1.6
	c1.4,0.4,2.3,1,2.3,2.4c-0.1,1.4-1.3,2.6-2.7,2.5c-0.1,0-0.1,0-0.2,0C216.5,72.6,215.8,72.5,215.3,72.1z"/>
<path class="st0" d="M222.7,66.9c0.1-0.5-0.3-1.1-0.9-1.1c0,0-0.1,0-0.1,0c-0.1,0-0.2-0.1-0.2-0.1v-0.2c0-0.1,0.1-0.1,0.1-0.1
	c0.7-0.3,1.4-0.6,2-0.9c0.1-0.1,0.2-0.1,0.4-0.1c0.1,0,0.1,0.1,0.1,0.2c0,0.3,0,1.5,0,3.1v2.1c0,0.7,0,1.4,0,1.6
	c0,0.4,0.1,0.5,0.3,0.5h0.9c0.1,0,0.2,0,0.2,0.1c0,0,0,0,0,0.1v0.3c0,0.1,0,0.2-0.2,0.2c-0.2,0-1-0.1-1.8-0.1
	c-1.1,0-1.8,0.1-2.1,0.1c-0.1,0-0.1,0-0.1-0.1c0,0,0,0,0,0v-0.4c0-0.1,0.1-0.2,0.2-0.2h0.9c0.2,0,0.3-0.1,0.3-0.4c0-0.6,0-1.2,0-1.7
	L222.7,66.9L222.7,66.9z M221.8,61.1c0-0.6,0.5-1,1.1-1c0,0,0,0,0.1,0c0.5,0,1,0.4,1,0.9c0,0,0,0,0,0.1c0,0.6-0.4,1-1,1
	c0,0-0.1,0-0.1,0C222.4,62,221.9,61.6,221.8,61.1L221.8,61.1z"/>
<path class="st0" d="M234.4,71.4c0,0.2,0.1,0.4,0.3,0.4c0,0,0.1,0,0.1,0h0.6c0.2,0,0.2,0.1,0.2,0.2v0.3c0,0.1,0,0.2-0.1,0.2
	s-0.8-0.1-1.8-0.1s-1.6,0.1-1.7,0.1s-0.1-0.1-0.1-0.2V72c0-0.1,0.1-0.2,0.2-0.2h0.5c0.2,0,0.4-0.1,0.4-0.4c0,0,0-0.1,0-0.1
	c0-0.5,0-1.1,0-1.6v-2.5c0.1-0.6-0.1-1.3-0.5-1.7c-0.4-0.3-0.9-0.4-1.4-0.3c-0.6,0-1.1,0.3-1.5,0.7c-0.3,0.4-0.5,0.8-0.4,1.3v3.9
	c0,0.5,0.1,0.6,0.5,0.6h0.5c0.1,0,0.2,0,0.2,0.1c0,0,0,0,0,0.1v0.3c0,0.1,0,0.2-0.1,0.2s-0.6-0.1-1.6-0.1s-1.6,0.1-1.7,0.1
	c-0.1,0-0.1-0.1-0.1-0.2V72c0-0.1,0-0.2,0.1-0.2c0,0,0,0,0.1,0h0.6c0.2,0,0.3-0.1,0.3-0.3c0,0,0-0.1,0-0.1V67c0-0.5-0.3-1-0.8-1.1
	l-0.1-0.1c-0.1,0-0.1-0.1-0.1-0.2v-0.1c0-0.1,0.1-0.2,0.2-0.2l1.6-0.9c0.1-0.1,0.2-0.1,0.3-0.1c0.1,0,0.1,0.1,0.1,0.2l0.1,1.2l0,0
	c0.6-0.8,1.6-1.3,2.6-1.4c0.6,0,1.1,0.1,1.6,0.4c0.6,0.4,0.9,1.1,1,1.8v4.9L234.4,71.4z"/>
<path class="st0" d="M238.1,67.4c0,0.3-0.1,0.6-0.1,0.9c0,1.9,1.2,3.3,2.7,3.3c0.9,0,1.8-0.5,2.3-1.3c0-0.1,0.1-0.1,0.2-0.1l0.2,0.1
	c0.1,0,0.1,0.1,0,0.3c-0.5,1.2-1.7,2-3,2.1c-1.2,0.1-2.3-0.4-3-1.3c-0.6-0.9-0.9-1.9-0.8-3c0-1.1,0.4-2.2,1.2-3
	c0.7-0.7,1.7-1.1,2.7-1c1.5,0,2.8,1.3,2.8,2.8c0,0.3-0.2,0.3-0.5,0.3L238.1,67.4L238.1,67.4z M241.1,66.8c0.4,0,0.5-0.1,0.5-0.3
	c0.1-0.9-0.6-1.6-1.4-1.7c0,0,0,0,0,0c-0.8,0-1.6,0.6-2,2L241.1,66.8L241.1,66.8z"/>
<path class="st0" d="M245.3,72.1c-0.1-0.1-0.1-0.2-0.1-0.3l-0.3-1.8c0-0.1,0-0.1,0.1-0.1c0,0,0,0,0,0l0.2-0.1c0.1,0,0.2,0,0.2,0.1
	c0,0,0,0,0,0l0.5,0.9c0.2,0.7,0.9,1.2,1.6,1.2c0.8,0.1,1.4-0.5,1.5-1.3c0,0,0,0,0,0c0-0.8-0.4-1.3-1.8-1.8c-1.1-0.3-2.2-0.9-2.2-2.4
	c0.1-1.4,1.3-2.4,2.7-2.3c0.6,0,1.2,0.1,1.8,0.4c0.2,0,0.3,0.2,0.3,0.3l0.3,1.3c0,0.1-0.1,0.2-0.1,0.2l-0.2,0.1
	c-0.1,0-0.1,0-0.2-0.1l-0.6-0.9c-0.3-0.5-0.8-0.8-1.3-0.7c-0.7-0.1-1.4,0.5-1.5,1.2c0,0,0,0,0,0c0,1.1,0.9,1.3,1.8,1.6
	c1.4,0.4,2.3,1,2.3,2.4c-0.1,1.4-1.3,2.6-2.7,2.5c-0.1,0-0.1,0-0.2,0C246.5,72.6,245.9,72.5,245.3,72.1z"/>
<path class="st0" d="M252.1,72.1c-0.1-0.1-0.1-0.2-0.1-0.3l-0.3-1.8c0-0.1,0-0.1,0.1-0.1c0,0,0,0,0,0l0.2-0.1c0.1,0,0.2,0,0.2,0.1
	c0,0,0,0,0,0l0.5,0.9c0.2,0.7,0.9,1.2,1.6,1.2c0.8,0.1,1.4-0.5,1.5-1.3c0,0,0,0,0,0c0-0.8-0.4-1.3-1.8-1.8c-1.1-0.3-2.2-0.9-2.2-2.4
	c0.1-1.4,1.3-2.4,2.7-2.3c0.6,0,1.2,0.1,1.8,0.4c0.2,0,0.3,0.2,0.3,0.3l0.3,1.3c0,0.1-0.1,0.2-0.1,0.2l-0.2,0.1
	c-0.1,0-0.1,0-0.2-0.1l-0.6-0.9c-0.3-0.5-0.8-0.8-1.3-0.7c-0.7-0.1-1.4,0.5-1.5,1.2c0,0,0,0,0,0c0,1.1,0.9,1.3,1.8,1.6
	c1.4,0.4,2.3,1,2.3,2.4c-0.1,1.4-1.3,2.6-2.7,2.5c-0.1,0-0.1,0-0.2,0C253.3,72.6,252.6,72.5,252.1,72.1z"/>
</svg>
